<mxfile host="Electron" agent="Mozilla/5.0 (Windows NT 10.0; Win64; x64) AppleWebKit/537.36 (KHTML, like Gecko) draw.io/28.1.2 Chrome/138.0.7204.243 Electron/37.4.0 Safari/537.36" version="28.1.2" pages="2">
  <diagram name="Page-1" id="KRKDZVXl1vfZUTQjSPNv">
    <mxGraphModel dx="1028" dy="611" grid="1" gridSize="10" guides="1" tooltips="1" connect="1" arrows="1" fold="1" page="1" pageScale="1" pageWidth="850" pageHeight="1100" math="0" shadow="0">
      <root>
        <mxCell id="0" />
        <mxCell id="1" parent="0" />
        <mxCell id="Mp_hwoX2BQit57sBbEWz-1" value="Start" style="ellipse;whiteSpace=wrap;html=1;fillColor=#e1d5e7;strokeColor=#9673a6;" parent="1" vertex="1">
          <mxGeometry x="385" y="40" width="80" height="50" as="geometry" />
        </mxCell>
        <mxCell id="Mp_hwoX2BQit57sBbEWz-2" value="" style="endArrow=classic;html=1;rounded=0;exitX=0.5;exitY=1;exitDx=0;exitDy=0;" parent="1" source="Mp_hwoX2BQit57sBbEWz-1" edge="1">
          <mxGeometry width="50" height="50" relative="1" as="geometry">
            <mxPoint x="420" y="260" as="sourcePoint" />
            <mxPoint x="425" y="120" as="targetPoint" />
          </mxGeometry>
        </mxCell>
        <mxCell id="Mp_hwoX2BQit57sBbEWz-3" value="nama=&quot;Siti Julpa&quot;" style="rounded=0;whiteSpace=wrap;html=1;fillColor=#ffe6cc;strokeColor=#d79b00;" parent="1" vertex="1">
          <mxGeometry x="368" y="120" width="115" height="30" as="geometry" />
        </mxCell>
        <mxCell id="Mp_hwoX2BQit57sBbEWz-4" value="NIM=2509106080" style="rounded=0;whiteSpace=wrap;html=1;fillColor=#ffe6cc;strokeColor=#d79b00;" parent="1" vertex="1">
          <mxGeometry x="368" y="180" width="115" height="30" as="geometry" />
        </mxCell>
        <mxCell id="Mp_hwoX2BQit57sBbEWz-5" value="" style="endArrow=classic;html=1;rounded=0;exitX=0.5;exitY=1;exitDx=0;exitDy=0;" parent="1" edge="1">
          <mxGeometry width="50" height="50" relative="1" as="geometry">
            <mxPoint x="425" y="150" as="sourcePoint" />
            <mxPoint x="425" y="180" as="targetPoint" />
          </mxGeometry>
        </mxCell>
        <mxCell id="Mp_hwoX2BQit57sBbEWz-6" value="" style="endArrow=classic;html=1;rounded=0;exitX=0.5;exitY=1;exitDx=0;exitDy=0;" parent="1" source="Mp_hwoX2BQit57sBbEWz-4" edge="1">
          <mxGeometry width="50" height="50" relative="1" as="geometry">
            <mxPoint x="470" y="240" as="sourcePoint" />
            <mxPoint x="426" y="240" as="targetPoint" />
          </mxGeometry>
        </mxCell>
        <mxCell id="Mp_hwoX2BQit57sBbEWz-7" value="For i in range(3)" style="rhombus;whiteSpace=wrap;html=1;fillColor=#f8cecc;strokeColor=#b85450;" parent="1" vertex="1">
          <mxGeometry x="367" y="240" width="117" height="60" as="geometry" />
        </mxCell>
        <mxCell id="Mp_hwoX2BQit57sBbEWz-8" value="" style="endArrow=classic;html=1;rounded=0;exitX=0.5;exitY=1;exitDx=0;exitDy=0;" parent="1" edge="1">
          <mxGeometry width="50" height="50" relative="1" as="geometry">
            <mxPoint x="425" y="300" as="sourcePoint" />
            <mxPoint x="425" y="330" as="targetPoint" />
          </mxGeometry>
        </mxCell>
        <mxCell id="Mp_hwoX2BQit57sBbEWz-10" value="Input&lt;div&gt;username&lt;/div&gt;" style="shape=parallelogram;perimeter=parallelogramPerimeter;whiteSpace=wrap;html=1;fixedSize=1;fillColor=#dae8fc;strokeColor=#6c8ebf;" parent="1" vertex="1">
          <mxGeometry x="367" y="330" width="113" height="40" as="geometry" />
        </mxCell>
        <mxCell id="Mp_hwoX2BQit57sBbEWz-11" value="" style="endArrow=classic;html=1;rounded=0;exitX=0.5;exitY=1;exitDx=0;exitDy=0;" parent="1" edge="1">
          <mxGeometry width="50" height="50" relative="1" as="geometry">
            <mxPoint x="423" y="370" as="sourcePoint" />
            <mxPoint x="423" y="400" as="targetPoint" />
          </mxGeometry>
        </mxCell>
        <mxCell id="Mp_hwoX2BQit57sBbEWz-12" value="Input&lt;div&gt;password&lt;/div&gt;" style="shape=parallelogram;perimeter=parallelogramPerimeter;whiteSpace=wrap;html=1;fixedSize=1;fillColor=#dae8fc;strokeColor=#6c8ebf;" parent="1" vertex="1">
          <mxGeometry x="367" y="400" width="113" height="40" as="geometry" />
        </mxCell>
        <mxCell id="Mp_hwoX2BQit57sBbEWz-13" value="if&amp;nbsp;&lt;div&gt;username==nama and password=NIM&lt;/div&gt;" style="rhombus;whiteSpace=wrap;html=1;fillColor=#f8cecc;strokeColor=#b85450;" parent="1" vertex="1">
          <mxGeometry x="348.63" y="470" width="149.75" height="90" as="geometry" />
        </mxCell>
        <mxCell id="Mp_hwoX2BQit57sBbEWz-15" value="" style="edgeStyle=none;orthogonalLoop=1;jettySize=auto;html=1;rounded=0;" parent="1" edge="1">
          <mxGeometry width="100" relative="1" as="geometry">
            <mxPoint x="352.5" y="340" as="sourcePoint" />
            <mxPoint x="385" y="340" as="targetPoint" />
            <Array as="points" />
          </mxGeometry>
        </mxCell>
        <mxCell id="Mp_hwoX2BQit57sBbEWz-16" value="" style="edgeStyle=none;orthogonalLoop=1;jettySize=auto;html=1;rounded=0;" parent="1" edge="1">
          <mxGeometry width="100" relative="1" as="geometry">
            <mxPoint x="352.5" y="410" as="sourcePoint" />
            <mxPoint x="385" y="410" as="targetPoint" />
            <Array as="points" />
          </mxGeometry>
        </mxCell>
        <mxCell id="Mp_hwoX2BQit57sBbEWz-17" value="" style="endArrow=classic;html=1;rounded=0;exitX=0.5;exitY=1;exitDx=0;exitDy=0;" parent="1" edge="1">
          <mxGeometry width="50" height="50" relative="1" as="geometry">
            <mxPoint x="423" y="440" as="sourcePoint" />
            <mxPoint x="423" y="470" as="targetPoint" />
          </mxGeometry>
        </mxCell>
        <mxCell id="Mp_hwoX2BQit57sBbEWz-18" value="" style="endArrow=classic;html=1;rounded=0;exitX=0.5;exitY=1;exitDx=0;exitDy=0;" parent="1" edge="1">
          <mxGeometry width="50" height="50" relative="1" as="geometry">
            <mxPoint x="423" y="560" as="sourcePoint" />
            <mxPoint x="423" y="590" as="targetPoint" />
          </mxGeometry>
        </mxCell>
        <mxCell id="Mp_hwoX2BQit57sBbEWz-20" value="Output&lt;div&gt;login berhasil&lt;/div&gt;" style="shape=parallelogram;perimeter=parallelogramPerimeter;whiteSpace=wrap;html=1;fixedSize=1;fillColor=#d5e8d4;strokeColor=#82b366;" parent="1" vertex="1">
          <mxGeometry x="357.51" y="590" width="126.49" height="50" as="geometry" />
        </mxCell>
        <mxCell id="Mp_hwoX2BQit57sBbEWz-21" value="" style="edgeStyle=none;orthogonalLoop=1;jettySize=auto;html=1;rounded=0;" parent="1" edge="1">
          <mxGeometry width="100" relative="1" as="geometry">
            <mxPoint x="480" y="600" as="sourcePoint" />
            <mxPoint x="513" y="600" as="targetPoint" />
            <Array as="points" />
          </mxGeometry>
        </mxCell>
        <mxCell id="Mp_hwoX2BQit57sBbEWz-22" value="True" style="text;html=1;align=center;verticalAlign=middle;resizable=0;points=[];autosize=1;strokeColor=none;fillColor=none;" parent="1" vertex="1">
          <mxGeometry x="415" y="560" width="50" height="30" as="geometry" />
        </mxCell>
        <mxCell id="Mp_hwoX2BQit57sBbEWz-23" value="" style="endArrow=classic;html=1;rounded=0;exitX=1;exitY=0.5;exitDx=0;exitDy=0;" parent="1" source="Mp_hwoX2BQit57sBbEWz-13" edge="1">
          <mxGeometry width="50" height="50" relative="1" as="geometry">
            <mxPoint x="440" y="480" as="sourcePoint" />
            <mxPoint x="540" y="515" as="targetPoint" />
          </mxGeometry>
        </mxCell>
        <mxCell id="Mp_hwoX2BQit57sBbEWz-24" value="False" style="text;html=1;align=center;verticalAlign=middle;resizable=0;points=[];autosize=1;strokeColor=none;fillColor=none;" parent="1" vertex="1">
          <mxGeometry x="485" y="488" width="50" height="30" as="geometry" />
        </mxCell>
        <mxCell id="Mp_hwoX2BQit57sBbEWz-25" value="If&amp;nbsp;&lt;div&gt;username==nama or password==NIM&lt;/div&gt;" style="rhombus;whiteSpace=wrap;html=1;fillColor=#f8cecc;strokeColor=#b85450;" parent="1" vertex="1">
          <mxGeometry x="540" y="475" width="170" height="80" as="geometry" />
        </mxCell>
        <mxCell id="Mp_hwoX2BQit57sBbEWz-26" value="" style="endArrow=classic;html=1;rounded=0;exitX=0.5;exitY=1;exitDx=0;exitDy=0;" parent="1" edge="1">
          <mxGeometry width="50" height="50" relative="1" as="geometry">
            <mxPoint x="624.5" y="555" as="sourcePoint" />
            <mxPoint x="625" y="590" as="targetPoint" />
          </mxGeometry>
        </mxCell>
        <mxCell id="Mp_hwoX2BQit57sBbEWz-28" value="True" style="text;html=1;align=center;verticalAlign=middle;resizable=0;points=[];autosize=1;strokeColor=none;fillColor=none;" parent="1" vertex="1">
          <mxGeometry x="615" y="555" width="50" height="30" as="geometry" />
        </mxCell>
        <mxCell id="Mp_hwoX2BQit57sBbEWz-30" value="Output&lt;div&gt;Error: format akun salah!&lt;/div&gt;" style="shape=parallelogram;perimeter=parallelogramPerimeter;whiteSpace=wrap;html=1;fixedSize=1;fillColor=#d5e8d4;strokeColor=#82b366;" parent="1" vertex="1">
          <mxGeometry x="540" y="590" width="170" height="40" as="geometry" />
        </mxCell>
        <mxCell id="Mp_hwoX2BQit57sBbEWz-32" value="" style="edgeStyle=none;orthogonalLoop=1;jettySize=auto;html=1;rounded=0;" parent="1" edge="1">
          <mxGeometry width="100" relative="1" as="geometry">
            <mxPoint x="710" y="514.5" as="sourcePoint" />
            <mxPoint x="743" y="514.5" as="targetPoint" />
            <Array as="points" />
          </mxGeometry>
        </mxCell>
        <mxCell id="Mp_hwoX2BQit57sBbEWz-33" value="False" style="text;html=1;align=center;verticalAlign=middle;resizable=0;points=[];autosize=1;strokeColor=none;fillColor=none;" parent="1" vertex="1">
          <mxGeometry x="695" y="488" width="50" height="30" as="geometry" />
        </mxCell>
        <mxCell id="Mp_hwoX2BQit57sBbEWz-34" value="Output&lt;div&gt;Error: Gagal login!&lt;/div&gt;" style="shape=parallelogram;perimeter=parallelogramPerimeter;whiteSpace=wrap;html=1;fixedSize=1;fillColor=#d5e8d4;strokeColor=#82b366;" parent="1" vertex="1">
          <mxGeometry x="730" y="495" width="140" height="40" as="geometry" />
        </mxCell>
        <mxCell id="Mp_hwoX2BQit57sBbEWz-35" value="" style="edgeStyle=none;orthogonalLoop=1;jettySize=auto;html=1;rounded=0;" parent="1" edge="1">
          <mxGeometry width="100" relative="1" as="geometry">
            <mxPoint x="703.5" y="600" as="sourcePoint" />
            <mxPoint x="736.5" y="600" as="targetPoint" />
            <Array as="points" />
          </mxGeometry>
        </mxCell>
        <mxCell id="Mp_hwoX2BQit57sBbEWz-36" value="" style="edgeStyle=none;orthogonalLoop=1;jettySize=auto;html=1;rounded=0;" parent="1" edge="1">
          <mxGeometry width="100" relative="1" as="geometry">
            <mxPoint x="860" y="502.5" as="sourcePoint" />
            <mxPoint x="893" y="502.5" as="targetPoint" />
            <Array as="points" />
          </mxGeometry>
        </mxCell>
        <mxCell id="Mp_hwoX2BQit57sBbEWz-38" value="" style="endArrow=classic;html=1;rounded=0;exitX=1;exitY=0.75;exitDx=0;exitDy=0;entryX=1;entryY=0.5;entryDx=0;entryDy=0;" parent="1" source="Mp_hwoX2BQit57sBbEWz-34" target="Mp_hwoX2BQit57sBbEWz-7" edge="1">
          <mxGeometry width="50" height="50" relative="1" as="geometry">
            <mxPoint x="830" y="410" as="sourcePoint" />
            <mxPoint x="880" y="360" as="targetPoint" />
            <Array as="points">
              <mxPoint x="930" y="523" />
              <mxPoint x="930" y="270" />
            </Array>
          </mxGeometry>
        </mxCell>
        <mxCell id="Mp_hwoX2BQit57sBbEWz-41" value="" style="endArrow=classic;html=1;rounded=0;exitX=0.5;exitY=1;exitDx=0;exitDy=0;" parent="1" source="Mp_hwoX2BQit57sBbEWz-20" edge="1">
          <mxGeometry width="50" height="50" relative="1" as="geometry">
            <mxPoint x="720" y="370" as="sourcePoint" />
            <mxPoint x="421" y="680" as="targetPoint" />
          </mxGeometry>
        </mxCell>
        <mxCell id="wgZLarsi7IgDCoDSiZTx-1" value="To Page 2" style="verticalLabelPosition=bottom;verticalAlign=top;html=1;shape=offPageConnector;rounded=0;size=0.5;fillColor=#dae8fc;strokeColor=#6c8ebf;" parent="1" vertex="1">
          <mxGeometry x="390.76" y="680" width="60" height="60" as="geometry" />
        </mxCell>
        <mxCell id="xaAbBtJ_p4B2K5931rej-1" value="" style="endArrow=none;html=1;rounded=0;exitX=1;exitY=0.5;exitDx=0;exitDy=0;" parent="1" source="Mp_hwoX2BQit57sBbEWz-30" edge="1">
          <mxGeometry width="50" height="50" relative="1" as="geometry">
            <mxPoint x="750" y="450" as="sourcePoint" />
            <mxPoint x="930" y="510" as="targetPoint" />
            <Array as="points">
              <mxPoint x="930" y="610" />
            </Array>
          </mxGeometry>
        </mxCell>
        <mxCell id="uw77qO742OwoGqHCxe07-1" value="" style="endArrow=classic;html=1;rounded=0;exitX=0;exitY=0.5;exitDx=0;exitDy=0;" edge="1" parent="1" source="Mp_hwoX2BQit57sBbEWz-7">
          <mxGeometry width="50" height="50" relative="1" as="geometry">
            <mxPoint x="500" y="440" as="sourcePoint" />
            <mxPoint x="330" y="270" as="targetPoint" />
          </mxGeometry>
        </mxCell>
        <mxCell id="uw77qO742OwoGqHCxe07-2" value="exit if i == 3" style="rounded=0;whiteSpace=wrap;html=1;fillColor=#ffe6cc;strokeColor=#d79b00;" vertex="1" parent="1">
          <mxGeometry x="250" y="260" width="80" height="20" as="geometry" />
        </mxCell>
      </root>
    </mxGraphModel>
  </diagram>
  <diagram id="A2HPW4cDF04vdnEWUBFT" name="Page-2">
    <mxGraphModel dx="587" dy="349" grid="1" gridSize="10" guides="1" tooltips="1" connect="1" arrows="1" fold="1" page="1" pageScale="1" pageWidth="850" pageHeight="1100" math="0" shadow="0">
      <root>
        <mxCell id="0" />
        <mxCell id="1" parent="0" />
        <mxCell id="psaPrawZLCL6BQYtXav5-3" value="" style="verticalLabelPosition=bottom;verticalAlign=top;html=1;shape=offPageConnector;rounded=0;size=0.5;fillColor=#dae8fc;strokeColor=#6c8ebf;" parent="1" vertex="1">
          <mxGeometry x="330" y="90" width="60" height="60" as="geometry" />
        </mxCell>
        <mxCell id="psaPrawZLCL6BQYtXav5-4" value="From Page 1" style="text;html=1;align=center;verticalAlign=middle;resizable=0;points=[];autosize=1;strokeColor=none;fillColor=none;" parent="1" vertex="1">
          <mxGeometry x="315" y="60" width="90" height="30" as="geometry" />
        </mxCell>
        <mxCell id="2UG0gcWEbiQt9abgyxnI-1" value="" style="endArrow=classic;html=1;rounded=0;" parent="1" edge="1">
          <mxGeometry width="50" height="50" relative="1" as="geometry">
            <mxPoint x="360" y="230" as="sourcePoint" />
            <mxPoint x="360" y="250" as="targetPoint" />
          </mxGeometry>
        </mxCell>
        <mxCell id="2UG0gcWEbiQt9abgyxnI-2" value="Input&lt;div&gt;opsi&lt;/div&gt;" style="shape=parallelogram;perimeter=parallelogramPerimeter;whiteSpace=wrap;html=1;fixedSize=1;fillColor=#dae8fc;strokeColor=#6c8ebf;" parent="1" vertex="1">
          <mxGeometry x="305" y="250" width="110" height="50" as="geometry" />
        </mxCell>
        <mxCell id="2UG0gcWEbiQt9abgyxnI-3" value="" style="endArrow=classic;html=1;rounded=0;exitX=0.5;exitY=1;exitDx=0;exitDy=0;" parent="1" source="2UG0gcWEbiQt9abgyxnI-2" edge="1">
          <mxGeometry width="50" height="50" relative="1" as="geometry">
            <mxPoint x="400" y="360" as="sourcePoint" />
            <mxPoint x="360" y="340" as="targetPoint" />
          </mxGeometry>
        </mxCell>
        <mxCell id="2UG0gcWEbiQt9abgyxnI-4" value="If&lt;div&gt;opsi==1 or opsi==2 or opsi==3&lt;/div&gt;" style="rhombus;whiteSpace=wrap;html=1;fillColor=#f8cecc;strokeColor=#b85450;" parent="1" vertex="1">
          <mxGeometry x="310" y="340" width="100" height="80" as="geometry" />
        </mxCell>
        <mxCell id="2UG0gcWEbiQt9abgyxnI-5" value="" style="endArrow=classic;html=1;rounded=0;exitX=0.5;exitY=1;exitDx=0;exitDy=0;" parent="1" edge="1">
          <mxGeometry width="50" height="50" relative="1" as="geometry">
            <mxPoint x="359.29" y="420" as="sourcePoint" />
            <mxPoint x="359.29" y="460" as="targetPoint" />
          </mxGeometry>
        </mxCell>
        <mxCell id="2UG0gcWEbiQt9abgyxnI-6" value="True" style="text;html=1;align=center;verticalAlign=middle;resizable=0;points=[];autosize=1;strokeColor=none;fillColor=none;" parent="1" vertex="1">
          <mxGeometry x="350" y="420" width="50" height="30" as="geometry" />
        </mxCell>
        <mxCell id="2UG0gcWEbiQt9abgyxnI-7" value="Input&lt;div&gt;jumlah tiket&lt;/div&gt;" style="shape=parallelogram;perimeter=parallelogramPerimeter;whiteSpace=wrap;html=1;fixedSize=1;fillColor=#dae8fc;strokeColor=#6c8ebf;" parent="1" vertex="1">
          <mxGeometry x="305" y="460" width="110" height="50" as="geometry" />
        </mxCell>
        <mxCell id="2UG0gcWEbiQt9abgyxnI-8" value="" style="endArrow=classic;html=1;rounded=0;entryX=0;entryY=0;entryDx=0;entryDy=0;" parent="1" target="2UG0gcWEbiQt9abgyxnI-7" edge="1">
          <mxGeometry width="50" height="50" relative="1" as="geometry">
            <mxPoint x="290" y="468" as="sourcePoint" />
            <mxPoint x="450" y="460" as="targetPoint" />
          </mxGeometry>
        </mxCell>
        <mxCell id="2UG0gcWEbiQt9abgyxnI-9" value="" style="endArrow=classic;html=1;rounded=0;entryX=0;entryY=0;entryDx=0;entryDy=0;" parent="1" edge="1">
          <mxGeometry width="50" height="50" relative="1" as="geometry">
            <mxPoint x="288" y="260" as="sourcePoint" />
            <mxPoint x="320" y="260" as="targetPoint" />
          </mxGeometry>
        </mxCell>
        <mxCell id="2UG0gcWEbiQt9abgyxnI-10" value="" style="endArrow=classic;html=1;rounded=0;exitX=0.5;exitY=1;exitDx=0;exitDy=0;" parent="1" source="2UG0gcWEbiQt9abgyxnI-7" edge="1">
          <mxGeometry width="50" height="50" relative="1" as="geometry">
            <mxPoint x="400" y="650" as="sourcePoint" />
            <mxPoint x="360" y="550" as="targetPoint" />
          </mxGeometry>
        </mxCell>
        <mxCell id="2UG0gcWEbiQt9abgyxnI-11" value="If&lt;div&gt;opsi==1&lt;/div&gt;" style="rhombus;whiteSpace=wrap;html=1;fillColor=#f8cecc;strokeColor=#b85450;" parent="1" vertex="1">
          <mxGeometry x="320" y="550" width="80" height="80" as="geometry" />
        </mxCell>
        <mxCell id="2UG0gcWEbiQt9abgyxnI-12" value="" style="endArrow=classic;html=1;rounded=0;exitX=0.5;exitY=1;exitDx=0;exitDy=0;" parent="1" edge="1">
          <mxGeometry width="50" height="50" relative="1" as="geometry">
            <mxPoint x="359.29" y="630" as="sourcePoint" />
            <mxPoint x="359.29" y="670" as="targetPoint" />
          </mxGeometry>
        </mxCell>
        <mxCell id="2UG0gcWEbiQt9abgyxnI-13" value="True" style="text;html=1;align=center;verticalAlign=middle;resizable=0;points=[];autosize=1;strokeColor=none;fillColor=none;" parent="1" vertex="1">
          <mxGeometry x="350" y="630" width="50" height="30" as="geometry" />
        </mxCell>
        <mxCell id="2UG0gcWEbiQt9abgyxnI-15" value="" style="edgeStyle=none;orthogonalLoop=1;jettySize=auto;html=1;rounded=0;entryX=0;entryY=0.5;entryDx=0;entryDy=0;" parent="1" target="2UG0gcWEbiQt9abgyxnI-18" edge="1">
          <mxGeometry width="100" relative="1" as="geometry">
            <mxPoint x="400" y="590" as="sourcePoint" />
            <mxPoint x="440" y="590" as="targetPoint" />
            <Array as="points" />
          </mxGeometry>
        </mxCell>
        <mxCell id="2UG0gcWEbiQt9abgyxnI-17" value="False" style="text;html=1;align=center;verticalAlign=middle;resizable=0;points=[];autosize=1;strokeColor=none;fillColor=none;" parent="1" vertex="1">
          <mxGeometry x="410" y="560" width="50" height="30" as="geometry" />
        </mxCell>
        <mxCell id="2UG0gcWEbiQt9abgyxnI-18" value="If&lt;div&gt;opsi==2&lt;/div&gt;" style="rhombus;whiteSpace=wrap;html=1;fillColor=#f8cecc;strokeColor=#b85450;" parent="1" vertex="1">
          <mxGeometry x="460" y="550" width="80" height="80" as="geometry" />
        </mxCell>
        <mxCell id="2UG0gcWEbiQt9abgyxnI-20" value="" style="endArrow=classic;html=1;rounded=0;exitX=0.5;exitY=1;exitDx=0;exitDy=0;" parent="1" source="2UG0gcWEbiQt9abgyxnI-18" edge="1">
          <mxGeometry width="50" height="50" relative="1" as="geometry">
            <mxPoint x="400" y="510" as="sourcePoint" />
            <mxPoint x="500" y="670" as="targetPoint" />
          </mxGeometry>
        </mxCell>
        <mxCell id="2UG0gcWEbiQt9abgyxnI-21" value="jenis=&quot;VIP&quot;" style="rounded=0;whiteSpace=wrap;html=1;fillColor=#ffe6cc;strokeColor=#d79b00;" parent="1" vertex="1">
          <mxGeometry x="445" y="670" width="110" height="30" as="geometry" />
        </mxCell>
        <mxCell id="2UG0gcWEbiQt9abgyxnI-22" value="" style="endArrow=classic;html=1;rounded=0;exitX=1;exitY=0.5;exitDx=0;exitDy=0;" parent="1" source="2UG0gcWEbiQt9abgyxnI-18" edge="1">
          <mxGeometry width="50" height="50" relative="1" as="geometry">
            <mxPoint x="560" y="600" as="sourcePoint" />
            <mxPoint x="610" y="590" as="targetPoint" />
          </mxGeometry>
        </mxCell>
        <mxCell id="2UG0gcWEbiQt9abgyxnI-23" value="False" style="text;html=1;align=center;verticalAlign=middle;resizable=0;points=[];autosize=1;strokeColor=none;fillColor=none;" parent="1" vertex="1">
          <mxGeometry x="540" y="560" width="50" height="30" as="geometry" />
        </mxCell>
        <mxCell id="2UG0gcWEbiQt9abgyxnI-24" value="True" style="text;html=1;align=center;verticalAlign=middle;resizable=0;points=[];autosize=1;strokeColor=none;fillColor=none;" parent="1" vertex="1">
          <mxGeometry x="490" y="630" width="50" height="30" as="geometry" />
        </mxCell>
        <mxCell id="2UG0gcWEbiQt9abgyxnI-25" value="jenis=&quot;VVIP&quot;" style="rounded=0;whiteSpace=wrap;html=1;fillColor=#ffe6cc;strokeColor=#d79b00;" parent="1" vertex="1">
          <mxGeometry x="610" y="572.5" width="110" height="35" as="geometry" />
        </mxCell>
        <mxCell id="t0hSvbztN0dC8JLIh5eK-1" value="" style="endArrow=classic;html=1;rounded=0;entryX=0.5;entryY=0;entryDx=0;entryDy=0;exitX=0.5;exitY=1;exitDx=0;exitDy=0;" parent="1" source="IE04Yh2SNCi5gIFaZ7de-14" target="t0hSvbztN0dC8JLIh5eK-8" edge="1">
          <mxGeometry width="50" height="50" relative="1" as="geometry">
            <mxPoint x="665" y="690" as="sourcePoint" />
            <mxPoint x="360" y="810" as="targetPoint" />
            <Array as="points">
              <mxPoint x="665" y="760" />
              <mxPoint x="360" y="760" />
            </Array>
          </mxGeometry>
        </mxCell>
        <mxCell id="t0hSvbztN0dC8JLIh5eK-4" value="" style="endArrow=none;html=1;rounded=0;" parent="1" source="2UG0gcWEbiQt9abgyxnI-14" edge="1">
          <mxGeometry width="50" height="50" relative="1" as="geometry">
            <mxPoint x="360" y="770" as="sourcePoint" />
            <mxPoint x="360" y="730" as="targetPoint" />
          </mxGeometry>
        </mxCell>
        <mxCell id="t0hSvbztN0dC8JLIh5eK-5" value="" style="endArrow=none;html=1;rounded=0;entryX=0.5;entryY=1;entryDx=0;entryDy=0;" parent="1" target="2UG0gcWEbiQt9abgyxnI-21" edge="1">
          <mxGeometry width="50" height="50" relative="1" as="geometry">
            <mxPoint x="500" y="760" as="sourcePoint" />
            <mxPoint x="570" y="780" as="targetPoint" />
          </mxGeometry>
        </mxCell>
        <mxCell id="t0hSvbztN0dC8JLIh5eK-8" value="total=jumlah*harga" style="rounded=0;whiteSpace=wrap;html=1;fillColor=#f8cecc;strokeColor=#b85450;" parent="1" vertex="1">
          <mxGeometry x="300" y="840" width="120" height="50" as="geometry" />
        </mxCell>
        <mxCell id="t0hSvbztN0dC8JLIh5eK-9" value="" style="endArrow=classic;html=1;rounded=0;" parent="1" edge="1">
          <mxGeometry width="50" height="50" relative="1" as="geometry">
            <mxPoint x="360" y="970" as="sourcePoint" />
            <mxPoint x="360" y="1010" as="targetPoint" />
          </mxGeometry>
        </mxCell>
        <mxCell id="t0hSvbztN0dC8JLIh5eK-10" value="If&lt;div&gt;totalBayar&amp;gt;=300000&lt;/div&gt;" style="rhombus;whiteSpace=wrap;html=1;fillColor=#f8cecc;strokeColor=#b85450;" parent="1" vertex="1">
          <mxGeometry x="280" y="1010" width="160" height="80" as="geometry" />
        </mxCell>
        <mxCell id="t0hSvbztN0dC8JLIh5eK-11" value="" style="endArrow=classic;html=1;rounded=0;exitX=0.5;exitY=1;exitDx=0;exitDy=0;" parent="1" source="t0hSvbztN0dC8JLIh5eK-10" edge="1">
          <mxGeometry width="50" height="50" relative="1" as="geometry">
            <mxPoint x="660" y="960" as="sourcePoint" />
            <mxPoint x="360" y="1130" as="targetPoint" />
          </mxGeometry>
        </mxCell>
        <mxCell id="t0hSvbztN0dC8JLIh5eK-13" value="True" style="edgeLabel;html=1;align=center;verticalAlign=middle;resizable=0;points=[];" parent="t0hSvbztN0dC8JLIh5eK-11" vertex="1" connectable="0">
          <mxGeometry x="-0.1441" y="4" relative="1" as="geometry">
            <mxPoint x="11" y="-1" as="offset" />
          </mxGeometry>
        </mxCell>
        <mxCell id="t0hSvbztN0dC8JLIh5eK-14" value="" style="endArrow=classic;html=1;rounded=0;exitX=1;exitY=0.5;exitDx=0;exitDy=0;" parent="1" source="t0hSvbztN0dC8JLIh5eK-10" edge="1">
          <mxGeometry width="50" height="50" relative="1" as="geometry">
            <mxPoint x="660" y="1080" as="sourcePoint" />
            <mxPoint x="480" y="1050" as="targetPoint" />
            <Array as="points">
              <mxPoint x="460" y="1050" />
            </Array>
          </mxGeometry>
        </mxCell>
        <mxCell id="t0hSvbztN0dC8JLIh5eK-15" value="If&lt;div&gt;totalBayar&amp;gt;=200000&lt;/div&gt;" style="rhombus;whiteSpace=wrap;html=1;fillColor=#f8cecc;strokeColor=#b85450;" parent="1" vertex="1">
          <mxGeometry x="480" y="1010" width="160" height="80" as="geometry" />
        </mxCell>
        <mxCell id="t0hSvbztN0dC8JLIh5eK-17" value="" style="endArrow=classic;html=1;rounded=0;exitX=0.5;exitY=1;exitDx=0;exitDy=0;" parent="1" edge="1">
          <mxGeometry width="50" height="50" relative="1" as="geometry">
            <mxPoint x="559.41" y="1090" as="sourcePoint" />
            <mxPoint x="559.41" y="1130" as="targetPoint" />
          </mxGeometry>
        </mxCell>
        <mxCell id="t0hSvbztN0dC8JLIh5eK-18" value="True" style="edgeLabel;html=1;align=center;verticalAlign=middle;resizable=0;points=[];" parent="t0hSvbztN0dC8JLIh5eK-17" vertex="1" connectable="0">
          <mxGeometry x="-0.1441" y="4" relative="1" as="geometry">
            <mxPoint x="11" y="-1" as="offset" />
          </mxGeometry>
        </mxCell>
        <mxCell id="t0hSvbztN0dC8JLIh5eK-20" value="False" style="text;html=1;align=center;verticalAlign=middle;resizable=0;points=[];autosize=1;strokeColor=none;fillColor=none;" parent="1" vertex="1">
          <mxGeometry x="430" y="1020" width="50" height="30" as="geometry" />
        </mxCell>
        <mxCell id="t0hSvbztN0dC8JLIh5eK-21" value="False" style="text;html=1;align=center;verticalAlign=middle;resizable=0;points=[];autosize=1;strokeColor=none;fillColor=none;" parent="1" vertex="1">
          <mxGeometry x="640" y="1020" width="50" height="30" as="geometry" />
        </mxCell>
        <mxCell id="t0hSvbztN0dC8JLIh5eK-22" value="" style="endArrow=classic;html=1;rounded=0;exitX=1;exitY=0.5;exitDx=0;exitDy=0;" parent="1" source="t0hSvbztN0dC8JLIh5eK-15" edge="1">
          <mxGeometry width="50" height="50" relative="1" as="geometry">
            <mxPoint x="660" y="1080" as="sourcePoint" />
            <mxPoint x="690" y="1050" as="targetPoint" />
          </mxGeometry>
        </mxCell>
        <mxCell id="t0hSvbztN0dC8JLIh5eK-23" value="If&lt;div&gt;totalBayar&amp;gt;=150000&lt;/div&gt;" style="rhombus;whiteSpace=wrap;html=1;fillColor=#f8cecc;strokeColor=#b85450;" parent="1" vertex="1">
          <mxGeometry x="690" y="1010" width="160" height="80" as="geometry" />
        </mxCell>
        <mxCell id="t0hSvbztN0dC8JLIh5eK-24" value="" style="endArrow=classic;html=1;rounded=0;exitX=0.5;exitY=1;exitDx=0;exitDy=0;" parent="1" edge="1">
          <mxGeometry width="50" height="50" relative="1" as="geometry">
            <mxPoint x="769.41" y="1090" as="sourcePoint" />
            <mxPoint x="769.41" y="1130" as="targetPoint" />
          </mxGeometry>
        </mxCell>
        <mxCell id="t0hSvbztN0dC8JLIh5eK-25" value="True" style="edgeLabel;html=1;align=center;verticalAlign=middle;resizable=0;points=[];" parent="t0hSvbztN0dC8JLIh5eK-24" vertex="1" connectable="0">
          <mxGeometry x="-0.1441" y="4" relative="1" as="geometry">
            <mxPoint x="11" y="-1" as="offset" />
          </mxGeometry>
        </mxCell>
        <mxCell id="t0hSvbztN0dC8JLIh5eK-27" value="" style="endArrow=classic;html=1;rounded=0;exitX=1;exitY=0.5;exitDx=0;exitDy=0;" parent="1" source="t0hSvbztN0dC8JLIh5eK-23" edge="1">
          <mxGeometry width="50" height="50" relative="1" as="geometry">
            <mxPoint x="660" y="1080" as="sourcePoint" />
            <mxPoint x="900" y="1050" as="targetPoint" />
          </mxGeometry>
        </mxCell>
        <mxCell id="t0hSvbztN0dC8JLIh5eK-28" value="False" style="text;html=1;align=center;verticalAlign=middle;resizable=0;points=[];autosize=1;strokeColor=none;fillColor=none;" parent="1" vertex="1">
          <mxGeometry x="840" y="1020" width="50" height="30" as="geometry" />
        </mxCell>
        <mxCell id="t0hSvbztN0dC8JLIh5eK-30" value="" style="endArrow=classic;html=1;rounded=0;exitX=0.5;exitY=1;exitDx=0;exitDy=0;" parent="1" edge="1">
          <mxGeometry width="50" height="50" relative="1" as="geometry">
            <mxPoint x="990" y="1080" as="sourcePoint" />
            <mxPoint x="360" y="1290" as="targetPoint" />
            <Array as="points">
              <mxPoint x="990" y="1240" />
              <mxPoint x="360" y="1240" />
            </Array>
          </mxGeometry>
        </mxCell>
        <mxCell id="t0hSvbztN0dC8JLIh5eK-31" value="" style="endArrow=none;html=1;rounded=0;" parent="1" edge="1">
          <mxGeometry width="50" height="50" relative="1" as="geometry">
            <mxPoint x="360" y="1240" as="sourcePoint" />
            <mxPoint x="360" y="1220" as="targetPoint" />
            <Array as="points">
              <mxPoint x="360" y="1210" />
            </Array>
          </mxGeometry>
        </mxCell>
        <mxCell id="t0hSvbztN0dC8JLIh5eK-32" value="" style="endArrow=none;html=1;rounded=0;exitX=0.5;exitY=1;exitDx=0;exitDy=0;" parent="1" edge="1">
          <mxGeometry width="50" height="50" relative="1" as="geometry">
            <mxPoint x="559.29" y="1190" as="sourcePoint" />
            <mxPoint x="559.29" y="1240" as="targetPoint" />
          </mxGeometry>
        </mxCell>
        <mxCell id="t0hSvbztN0dC8JLIh5eK-33" value="" style="endArrow=none;html=1;rounded=0;exitX=0.5;exitY=1;exitDx=0;exitDy=0;" parent="1" edge="1">
          <mxGeometry width="50" height="50" relative="1" as="geometry">
            <mxPoint x="769.29" y="1190" as="sourcePoint" />
            <mxPoint x="769.29" y="1240" as="targetPoint" />
          </mxGeometry>
        </mxCell>
        <mxCell id="t0hSvbztN0dC8JLIh5eK-35" value="totalAkhir=totalBayar" style="rounded=0;whiteSpace=wrap;html=1;fillColor=#ffe6cc;strokeColor=#d79b00;" parent="1" vertex="1">
          <mxGeometry x="280" y="1290" width="160" height="30" as="geometry" />
        </mxCell>
        <mxCell id="t0hSvbztN0dC8JLIh5eK-36" value="" style="endArrow=classic;html=1;rounded=0;" parent="1" edge="1">
          <mxGeometry width="50" height="50" relative="1" as="geometry">
            <mxPoint x="360" y="1380" as="sourcePoint" />
            <mxPoint x="360" y="1400" as="targetPoint" />
          </mxGeometry>
        </mxCell>
        <mxCell id="t0hSvbztN0dC8JLIh5eK-37" value="Output&lt;div&gt;Struk pembelian&lt;/div&gt;" style="shape=parallelogram;perimeter=parallelogramPerimeter;whiteSpace=wrap;html=1;fixedSize=1;fillColor=#d5e8d4;strokeColor=#82b366;" parent="1" vertex="1">
          <mxGeometry x="295" y="1400" width="120" height="60" as="geometry" />
        </mxCell>
        <mxCell id="t0hSvbztN0dC8JLIh5eK-40" value="diskon=totalBayar*12/100" style="rounded=0;whiteSpace=wrap;html=1;fillColor=#ffe6cc;strokeColor=#d79b00;" parent="1" vertex="1">
          <mxGeometry x="280" y="1130" width="160" height="30" as="geometry" />
        </mxCell>
        <mxCell id="t0hSvbztN0dC8JLIh5eK-41" value="diskon=totalBayar*8/100" style="rounded=0;whiteSpace=wrap;html=1;fillColor=#ffe6cc;strokeColor=#d79b00;" parent="1" vertex="1">
          <mxGeometry x="480" y="1130" width="160" height="30" as="geometry" />
        </mxCell>
        <mxCell id="t0hSvbztN0dC8JLIh5eK-42" value="bonus=&quot;Poster film eksklusif&quot;" style="rounded=0;whiteSpace=wrap;html=1;fillColor=#ffe6cc;strokeColor=#d79b00;" parent="1" vertex="1">
          <mxGeometry x="680" y="1130" width="180" height="60" as="geometry" />
        </mxCell>
        <mxCell id="t0hSvbztN0dC8JLIh5eK-43" value="bonus=&quot;Tidak mendapat bonus&quot;" style="rounded=0;whiteSpace=wrap;html=1;fillColor=#ffe6cc;strokeColor=#d79b00;" parent="1" vertex="1">
          <mxGeometry x="900" y="1020" width="180" height="60" as="geometry" />
        </mxCell>
        <mxCell id="t0hSvbztN0dC8JLIh5eK-45" value="" style="endArrow=classic;html=1;rounded=0;exitX=0;exitY=0.5;exitDx=0;exitDy=0;entryX=0;entryY=0.75;entryDx=0;entryDy=0;" parent="1" source="t0hSvbztN0dC8JLIh5eK-37" target="2UG0gcWEbiQt9abgyxnI-2" edge="1">
          <mxGeometry width="50" height="50" relative="1" as="geometry">
            <mxPoint x="630" y="1370" as="sourcePoint" />
            <mxPoint x="240" y="140" as="targetPoint" />
            <Array as="points">
              <mxPoint x="240" y="1430" />
              <mxPoint x="240" y="540" />
              <mxPoint x="240" y="286" />
            </Array>
          </mxGeometry>
        </mxCell>
        <mxCell id="t0hSvbztN0dC8JLIh5eK-46" value="" style="endArrow=classic;html=1;rounded=0;exitX=1;exitY=0.5;exitDx=0;exitDy=0;" parent="1" source="2UG0gcWEbiQt9abgyxnI-4" edge="1">
          <mxGeometry width="50" height="50" relative="1" as="geometry">
            <mxPoint x="630" y="490" as="sourcePoint" />
            <mxPoint x="470" y="380" as="targetPoint" />
          </mxGeometry>
        </mxCell>
        <mxCell id="t0hSvbztN0dC8JLIh5eK-47" value="False" style="text;html=1;align=center;verticalAlign=middle;resizable=0;points=[];autosize=1;strokeColor=none;fillColor=none;" parent="1" vertex="1">
          <mxGeometry x="405" y="348" width="50" height="30" as="geometry" />
        </mxCell>
        <mxCell id="t0hSvbztN0dC8JLIh5eK-49" value="Program berhenti" style="rounded=0;whiteSpace=wrap;html=1;fillColor=#ffe6cc;strokeColor=#d79b00;" parent="1" vertex="1">
          <mxGeometry x="470" y="359" width="110" height="42" as="geometry" />
        </mxCell>
        <mxCell id="t0hSvbztN0dC8JLIh5eK-50" value="" style="endArrow=classic;html=1;rounded=0;" parent="1" edge="1">
          <mxGeometry width="50" height="50" relative="1" as="geometry">
            <mxPoint x="359.29" y="1460" as="sourcePoint" />
            <mxPoint x="359.29" y="1500" as="targetPoint" />
          </mxGeometry>
        </mxCell>
        <mxCell id="t0hSvbztN0dC8JLIh5eK-51" value="End" style="ellipse;whiteSpace=wrap;html=1;fillColor=#e1d5e7;strokeColor=#9673a6;" parent="1" vertex="1">
          <mxGeometry x="315" y="1500" width="90" height="60" as="geometry" />
        </mxCell>
        <mxCell id="VQNF3DfqUnRnsRDlKqZd-1" value="" style="endArrow=classic;html=1;rounded=0;exitX=1;exitY=0.75;exitDx=0;exitDy=0;" parent="1" source="t0hSvbztN0dC8JLIh5eK-37" edge="1">
          <mxGeometry width="50" height="50" relative="1" as="geometry">
            <mxPoint x="450" y="1460" as="sourcePoint" />
            <mxPoint x="450" y="1442" as="targetPoint" />
          </mxGeometry>
        </mxCell>
        <mxCell id="IE04Yh2SNCi5gIFaZ7de-1" value="&lt;div&gt;bonus=&quot;Potongan 12%&quot;&lt;/div&gt;" style="rounded=0;whiteSpace=wrap;html=1;fillColor=#ffe6cc;strokeColor=#d79b00;" parent="1" vertex="1">
          <mxGeometry x="280" y="1190" width="160" height="30" as="geometry" />
        </mxCell>
        <mxCell id="IE04Yh2SNCi5gIFaZ7de-2" value="" style="endArrow=classic;html=1;rounded=0;exitX=0.5;exitY=1;exitDx=0;exitDy=0;" parent="1" source="t0hSvbztN0dC8JLIh5eK-40" edge="1">
          <mxGeometry width="50" height="50" relative="1" as="geometry">
            <mxPoint x="650" y="1210" as="sourcePoint" />
            <mxPoint x="360" y="1190" as="targetPoint" />
          </mxGeometry>
        </mxCell>
        <mxCell id="IE04Yh2SNCi5gIFaZ7de-3" value="&lt;span style=&quot;background-color: transparent; color: light-dark(rgb(0, 0, 0), rgb(255, 255, 255));&quot;&gt;bonus=&quot;Potongan 8%&quot;&lt;/span&gt;" style="rounded=0;whiteSpace=wrap;html=1;fillColor=#ffe6cc;strokeColor=#d79b00;" parent="1" vertex="1">
          <mxGeometry x="480" y="1190" width="160" height="30" as="geometry" />
        </mxCell>
        <mxCell id="IE04Yh2SNCi5gIFaZ7de-4" value="" style="endArrow=classic;html=1;rounded=0;exitX=0.5;exitY=1;exitDx=0;exitDy=0;" parent="1" edge="1">
          <mxGeometry width="50" height="50" relative="1" as="geometry">
            <mxPoint x="559.41" y="1160" as="sourcePoint" />
            <mxPoint x="559.41" y="1190" as="targetPoint" />
          </mxGeometry>
        </mxCell>
        <mxCell id="IE04Yh2SNCi5gIFaZ7de-5" value="" style="endArrow=classic;html=1;rounded=0;" parent="1" edge="1">
          <mxGeometry width="50" height="50" relative="1" as="geometry">
            <mxPoint x="360" y="1320" as="sourcePoint" />
            <mxPoint x="360" y="1350" as="targetPoint" />
          </mxGeometry>
        </mxCell>
        <mxCell id="IE04Yh2SNCi5gIFaZ7de-7" value="totalAkhir=totalBayar-diskon" style="rounded=0;whiteSpace=wrap;html=1;fillColor=#ffe6cc;strokeColor=#d79b00;" parent="1" vertex="1">
          <mxGeometry x="280" y="1350" width="160" height="30" as="geometry" />
        </mxCell>
        <mxCell id="IE04Yh2SNCi5gIFaZ7de-8" value="jenis=&quot;Reguler&quot;" style="rounded=0;whiteSpace=wrap;html=1;fillColor=#ffe6cc;strokeColor=#d79b00;" parent="1" vertex="1">
          <mxGeometry x="310" y="670" width="110" height="30" as="geometry" />
        </mxCell>
        <mxCell id="IE04Yh2SNCi5gIFaZ7de-9" value="" style="endArrow=classic;html=1;rounded=0;" parent="1" edge="1">
          <mxGeometry width="50" height="50" relative="1" as="geometry">
            <mxPoint x="359.40999999999997" y="700" as="sourcePoint" />
            <mxPoint x="359.40999999999997" y="720" as="targetPoint" />
          </mxGeometry>
        </mxCell>
        <mxCell id="2UG0gcWEbiQt9abgyxnI-14" value="&lt;span style=&quot;background-color: transparent; color: light-dark(rgb(0, 0, 0), rgb(255, 255, 255));&quot;&gt;harga=50000&lt;/span&gt;" style="rounded=0;whiteSpace=wrap;html=1;fillColor=#ffe6cc;strokeColor=#d79b00;" parent="1" vertex="1">
          <mxGeometry x="310" y="720" width="110" height="20" as="geometry" />
        </mxCell>
        <mxCell id="IE04Yh2SNCi5gIFaZ7de-11" value="" style="endArrow=none;html=1;rounded=0;exitX=0.455;exitY=1;exitDx=0;exitDy=0;exitPerimeter=0;" parent="1" source="2UG0gcWEbiQt9abgyxnI-14" edge="1">
          <mxGeometry width="50" height="50" relative="1" as="geometry">
            <mxPoint x="710" y="700" as="sourcePoint" />
            <mxPoint x="360" y="760" as="targetPoint" />
          </mxGeometry>
        </mxCell>
        <mxCell id="IE04Yh2SNCi5gIFaZ7de-12" value="&lt;span style=&quot;background-color: transparent; color: light-dark(rgb(0, 0, 0), rgb(255, 255, 255));&quot;&gt;harga=100000&lt;/span&gt;" style="rounded=0;whiteSpace=wrap;html=1;fillColor=#ffe6cc;strokeColor=#d79b00;" parent="1" vertex="1">
          <mxGeometry x="445" y="720" width="110" height="20" as="geometry" />
        </mxCell>
        <mxCell id="IE04Yh2SNCi5gIFaZ7de-13" value="" style="endArrow=classic;html=1;rounded=0;" parent="1" edge="1">
          <mxGeometry width="50" height="50" relative="1" as="geometry">
            <mxPoint x="499.41" y="700" as="sourcePoint" />
            <mxPoint x="499.41" y="720" as="targetPoint" />
          </mxGeometry>
        </mxCell>
        <mxCell id="IE04Yh2SNCi5gIFaZ7de-14" value="&lt;span style=&quot;background-color: transparent; color: light-dark(rgb(0, 0, 0), rgb(255, 255, 255));&quot;&gt;harga=150000&lt;/span&gt;" style="rounded=0;whiteSpace=wrap;html=1;fillColor=#ffe6cc;strokeColor=#d79b00;" parent="1" vertex="1">
          <mxGeometry x="610" y="630" width="110" height="30" as="geometry" />
        </mxCell>
        <mxCell id="IE04Yh2SNCi5gIFaZ7de-15" value="" style="endArrow=classic;html=1;rounded=0;" parent="1" edge="1">
          <mxGeometry width="50" height="50" relative="1" as="geometry">
            <mxPoint x="664.41" y="607.5" as="sourcePoint" />
            <mxPoint x="664" y="630" as="targetPoint" />
          </mxGeometry>
        </mxCell>
        <mxCell id="IE04Yh2SNCi5gIFaZ7de-16" value="totalBayar=total" style="rounded=0;whiteSpace=wrap;html=1;fillColor=#f8cecc;strokeColor=#b85450;" parent="1" vertex="1">
          <mxGeometry x="300" y="920" width="120" height="50" as="geometry" />
        </mxCell>
        <mxCell id="IE04Yh2SNCi5gIFaZ7de-17" value="" style="endArrow=classic;html=1;rounded=0;exitX=0.5;exitY=1;exitDx=0;exitDy=0;" parent="1" source="t0hSvbztN0dC8JLIh5eK-8" edge="1">
          <mxGeometry width="50" height="50" relative="1" as="geometry">
            <mxPoint x="710" y="1050" as="sourcePoint" />
            <mxPoint x="360" y="920" as="targetPoint" />
          </mxGeometry>
        </mxCell>
        <mxCell id="zLri6FYerBVM8CXWo854-1" value="Output&lt;div&gt;opsi pembayaran&lt;/div&gt;" style="shape=parallelogram;perimeter=parallelogramPerimeter;whiteSpace=wrap;html=1;fixedSize=1;fillColor=#d5e8d4;strokeColor=#82b366;" vertex="1" parent="1">
          <mxGeometry x="310" y="180" width="120" height="50" as="geometry" />
        </mxCell>
        <mxCell id="zLri6FYerBVM8CXWo854-3" value="" style="endArrow=classic;html=1;rounded=0;entryX=0;entryY=0;entryDx=0;entryDy=0;" edge="1" parent="1">
          <mxGeometry width="50" height="50" relative="1" as="geometry">
            <mxPoint x="420" y="200" as="sourcePoint" />
            <mxPoint x="452" y="200" as="targetPoint" />
          </mxGeometry>
        </mxCell>
        <mxCell id="zLri6FYerBVM8CXWo854-4" value="" style="endArrow=classic;html=1;rounded=0;" edge="1" parent="1">
          <mxGeometry width="50" height="50" relative="1" as="geometry">
            <mxPoint x="360" y="150" as="sourcePoint" />
            <mxPoint x="359.5" y="180" as="targetPoint" />
          </mxGeometry>
        </mxCell>
      </root>
    </mxGraphModel>
  </diagram>
</mxfile>
